PathFileType	4	(X/Y/Z)	C:\Data Capture\Research\archery\Archery pilot2.trc
DataRate	CameraRate	NumFrames	NumMarkers	Units	OrigDataRate	OrigDataStartFrame	OrigNumFrames
100.00	100.00	      47	3	mm	100.00	376	      1500
Frame#	Time	Marker 1			Marker 2			Marker 3			
		X1	Y1	Z1	X2	Y2	Z2	X3	Y3	Z3	

376	3.750	500.45499	580.40540	1773.02502	597.41455	580.71533	1762.76233	574.09760	539.47028	1659.13953	
377	3.760	501.49896	580.55719	1771.59924	598.66675	580.76935	1760.84912	574.84009	539.53839	1657.55847	
378	3.770	502.52759	580.69849	1770.16357	599.81592	580.93835	1759.03748	575.56976	539.60474	1655.96021	
379	3.780	503.54517	580.83252	1768.71436	600.95862	581.12952	1757.25146	576.28577	539.66412	1654.34949	
380	3.790	504.56229	580.96332	1767.25012	602.16309	581.27814	1755.43127	576.99268	539.71576	1652.73206	
381	3.800	505.58838	581.09399	1765.77295	603.41870	581.37610	1753.57141	577.70087	539.76111	1651.11304	
382	3.810	506.62756	581.22510	1764.28662	604.67413	581.44769	1751.70154	578.42273	539.80017	1649.49609	
383	3.820	507.68021	581.35425	1762.79492	605.89386	581.51349	1749.85046	579.16583	539.82941	1647.88123	
384	3.830	508.74402	581.48041	1761.30139	607.06610	581.58276	1748.03271	579.92987	539.84137	1646.26624	
385	3.840	509.81540	581.60553	1759.81006	608.19238	581.65845	1746.25195	580.70801	539.82758	1644.65015	
386	3.850	510.89063	581.73065	1758.32605	609.28290	581.73822	1744.50635	581.48981	539.78119	1643.03564	
387	3.860	511.96628	581.85382	1756.85498	610.34991	581.81360	1742.79053	582.26508	539.70007	1641.42859	
388	3.870	513.03973	581.97101	1755.40234	611.40100	581.86920	1741.09839	583.02716	539.58795	1639.83655	
389	3.880	514.10852	582.07471	1753.97241	612.43689	581.88751	1739.42712	583.77338	539.45264	1638.26892	
390	3.890	515.16571	582.15375	1752.56763	613.45081	581.85431	1737.77930	584.50385	539.30310	1636.73535	
391	3.900	516.20148	582.19775	1751.19141	614.43280	581.76080	1736.16138	585.22113	539.14557	1635.24463	
392	3.910	517.21014	582.20221	1749.84949	615.37775	581.60632	1734.58386	585.92676	538.98322	1633.80237	
393	3.920	518.19226	582.16797	1748.54895	616.28943	581.40399	1733.05847	586.61792	538.81750	1632.40930	
394	3.930	519.14740	582.09723	1747.29529	617.17596	581.17834	1731.59436	587.28827	538.64966	1631.06116	
395	3.940	520.06921	581.99261	1746.09082	618.04242	580.95251	1730.19324	587.93329	538.48224	1629.75098	
396	3.950	520.95166	581.86041	1744.93201	618.88934	580.74036	1728.84863	588.55542	538.31940	1628.47083	
397	3.960	521.79877	581.71222	1743.81055	619.71747	580.54901	1727.54651	589.16077	538.16339	1627.21582	
398	3.970	522.62555	581.56293	1742.71680	620.52869	580.38190	1726.27075	589.75391	538.01288	1625.98352	
399	3.980	523.44861	581.42780	1741.64404	621.32416	580.24103	1725.00964	590.33722	537.86536	1624.77332	
400	3.990	524.27820	581.31952	1740.58765	622.10449	580.12701	1723.75916	590.91296	537.72021	1623.58508	
401	4.000	525.11658	581.24463	1739.54285	622.87158	580.03711	1722.51904	591.48352	537.57965	1622.41943	
402	4.010	525.95667	581.20111	1738.50391	623.62488	579.96393	1721.28918	592.05066	537.44757	1621.27820	
403	4.020	526.78540	581.18213	1737.46631	624.35999	579.89838	1720.06860	592.61548	537.32715	1620.16150	
404	4.030	527.59253	581.18066	1736.42810	625.07495	579.83368	1718.85767	593.17786	537.21735	1619.06702	
405	4.040	528.37689	581.19171	1735.39014	625.77509	579.76825	1717.65723	593.73468	537.11145	1617.99011	
406	4.050	529.14319	581.21185	1734.35400	626.46924	579.70581	1716.46570	594.27997	536.99933	1616.92322	
407	4.060	529.89594	581.23828	1733.32178	627.16461	579.65216	1715.27722	594.80707	536.87408	1615.85522	
408	4.070	530.63763	581.26611	1732.29614	627.86542	579.61096	1714.08386	595.31110	536.73492	1614.77332	
409	4.080	531.37152	581.28992	1731.27856	628.57263	579.58386	1712.87756	595.79163	536.58484	1613.66833	
410	4.090	532.10272	581.30634	1730.26465	629.28363	579.57086	1711.65051	596.25464	536.42865	1612.53662	
411	4.100	532.83649	581.31647	1729.24402	629.99396	579.56860	1710.39539	596.70972	536.27264	1611.37805	
412	4.110	533.57935	581.32501	1728.20447	630.70068	579.56750	1709.10779	597.16595	536.12378	1610.19397	
413	4.120	534.33716	581.33618	1727.13110	631.40442	579.55457	1707.78821	597.62952	535.98712	1608.98486	
414	4.130	535.10620	581.34882	1726.01086	632.10883	579.52435	1706.44226	598.10419	535.86255	1607.75024	
415	4.140	535.87018	581.35675	1724.84167	632.81732	579.48102	1705.07654	598.59259	535.74640	1606.49121	
416	4.150	536.61163	581.35516	1723.63391	633.53217	579.43158	1703.69458	599.09717	535.63672	1605.21033	
417	4.160	537.32629	581.34387	1722.39954	634.25500	579.38232	1702.29785	599.62103	535.53473	1603.91052	
418	4.170	538.02667	581.32532	1721.14868	634.98547	579.33813	1700.88513	600.16510	535.44165	1602.59375	
419	4.180	538.73352	581.30219	1719.88647	635.72205	579.30078	1699.45386	600.72534	535.35651	1601.25964	
420	4.190	539.46381	581.27667	1718.60547	636.46686	579.26862	1698.00073	601.29419	535.27393	1599.90833	
421	4.200	540.22455	581.25037	1717.29211	637.22461	579.23676	1696.52405	601.86340	535.18359	1598.54041	
422	4.210	541.01276	581.22382	1715.94409	637.99823	579.19818	1695.02209	602.42664	535.07428	1597.15613	
